<svg xmlns="http://www.w3.org/2000/svg" xmlns:xlink="http://www.w3.org/1999/xlink" width="15" zoomAndPan="magnify" viewBox="0 0 30 30.000001" height="15" preserveAspectRatio="xMidYMid meet" version="1.0"><defs><clipPath id="91bbfa77c8"><path d="M 0.484375 0 L 20 0 L 20 20 L 0.484375 20 Z M 0.484375 0 " clip-rule="nonzero"/></clipPath><clipPath id="78988851e4"><path d="M 19 19 L 29.515625 19 L 29.515625 29.03125 L 19 29.03125 Z M 19 19 " clip-rule="nonzero"/></clipPath></defs><g clip-path="url(#91bbfa77c8)"><path fill="#000000" d="M 10.171875 19.539062 C 4.832031 19.539062 0.488281 15.15625 0.488281 9.769531 C 0.488281 4.382812 4.832031 0 10.171875 0 C 15.511719 0 19.855469 4.382812 19.855469 9.769531 C 19.855469 15.15625 15.511719 19.539062 10.171875 19.539062 Z M 10.171875 1.605469 C 9.640625 1.605469 9.117188 1.65625 8.59375 1.761719 C 8.074219 1.867188 7.566406 2.023438 7.078125 2.226562 C 6.585938 2.433594 6.121094 2.683594 5.679688 2.980469 C 5.238281 3.277344 4.828125 3.617188 4.453125 3.996094 C 4.078125 4.375 3.742188 4.789062 3.445312 5.234375 C 3.152344 5.679688 2.902344 6.148438 2.699219 6.644531 C 2.496094 7.140625 2.339844 7.648438 2.238281 8.175781 C 2.132812 8.703125 2.082031 9.230469 2.082031 9.769531 C 2.082031 10.304688 2.132812 10.835938 2.238281 11.359375 C 2.339844 11.886719 2.496094 12.398438 2.699219 12.890625 C 2.902344 13.386719 3.152344 13.859375 3.445312 14.304688 C 3.742188 14.75 4.078125 15.160156 4.453125 15.539062 C 4.828125 15.917969 5.238281 16.257812 5.679688 16.554688 C 6.121094 16.851562 6.585938 17.105469 7.078125 17.308594 C 7.566406 17.515625 8.074219 17.667969 8.59375 17.773438 C 9.117188 17.878906 9.640625 17.929688 10.171875 17.929688 C 10.703125 17.929688 11.230469 17.878906 11.75 17.773438 C 12.273438 17.667969 12.777344 17.515625 13.269531 17.308594 C 13.757812 17.105469 14.226562 16.851562 14.667969 16.554688 C 15.109375 16.257812 15.519531 15.917969 15.894531 15.539062 C 16.269531 15.160156 16.605469 14.75 16.898438 14.304688 C 17.195312 13.859375 17.445312 13.386719 17.648438 12.890625 C 17.851562 12.398438 18.003906 11.886719 18.105469 11.359375 C 18.210938 10.835938 18.261719 10.304688 18.261719 9.769531 C 18.261719 9.234375 18.210938 8.703125 18.105469 8.175781 C 18 7.652344 17.847656 7.140625 17.644531 6.644531 C 17.441406 6.152344 17.191406 5.679688 16.894531 5.234375 C 16.601562 4.789062 16.265625 4.378906 15.890625 4 C 15.515625 3.621094 15.105469 3.28125 14.664062 2.984375 C 14.222656 2.6875 13.757812 2.4375 13.265625 2.230469 C 12.777344 2.023438 12.269531 1.871094 11.75 1.765625 C 11.230469 1.660156 10.703125 1.609375 10.171875 1.605469 Z M 10.171875 1.605469 " fill-opacity="1" fill-rule="nonzero"/></g><path fill="#000000" d="M 17.164062 20.59375 C 16.984375 20.59375 16.820312 20.542969 16.667969 20.441406 C 16.519531 20.34375 16.410156 20.207031 16.339844 20.039062 C 16.273438 19.871094 16.253906 19.699219 16.289062 19.519531 C 16.324219 19.34375 16.40625 19.1875 16.53125 19.058594 L 18.996094 16.554688 C 19.078125 16.460938 19.175781 16.386719 19.285156 16.335938 C 19.394531 16.28125 19.511719 16.253906 19.636719 16.25 C 19.757812 16.246094 19.878906 16.265625 19.992188 16.308594 C 20.105469 16.355469 20.207031 16.421875 20.292969 16.507812 C 20.382812 16.59375 20.449219 16.695312 20.492188 16.8125 C 20.539062 16.925781 20.5625 17.046875 20.558594 17.167969 C 20.554688 17.292969 20.527344 17.410156 20.476562 17.523438 C 20.425781 17.636719 20.355469 17.734375 20.261719 17.816406 L 17.796875 20.324219 C 17.625 20.503906 17.414062 20.59375 17.164062 20.59375 Z M 17.164062 20.59375 " fill-opacity="1" fill-rule="nonzero"/><g clip-path="url(#78988851e4)"><path fill="#000000" d="M 27.863281 29.03125 C 27.4375 29.03125 27.070312 28.878906 26.769531 28.566406 L 20.210938 21.789062 C 20.070312 21.640625 19.960938 21.472656 19.882812 21.285156 C 19.808594 21.09375 19.773438 20.894531 19.773438 20.691406 C 19.777344 20.488281 19.816406 20.289062 19.898438 20.101562 C 19.976562 19.914062 20.089844 19.75 20.234375 19.605469 C 20.378906 19.464844 20.546875 19.355469 20.734375 19.277344 C 20.921875 19.203125 21.117188 19.164062 21.320312 19.167969 C 21.523438 19.167969 21.71875 19.210938 21.90625 19.292969 C 22.09375 19.371094 22.257812 19.484375 22.398438 19.632812 L 28.957031 26.410156 C 29.171875 26.632812 29.308594 26.898438 29.367188 27.203125 C 29.425781 27.507812 29.394531 27.800781 29.273438 28.085938 C 29.15625 28.375 28.96875 28.601562 28.710938 28.773438 C 28.453125 28.945312 28.171875 29.03125 27.863281 29.03125 Z M 27.863281 29.03125 " fill-opacity="1" fill-rule="nonzero"/></g><path fill="#000000" d="M 10.15625 16.648438 C 8.910156 16.648438 7.261719 16.289062 5.496094 14.917969 C 3.945312 13.71875 3.234375 11.867188 3.429688 9.574219 C 3.527344 8.511719 3.777344 7.488281 4.183594 6.503906 C 4.234375 6.382812 4.324219 6.300781 4.449219 6.253906 C 4.570312 6.207031 4.691406 6.210938 4.8125 6.265625 C 4.933594 6.316406 5.015625 6.40625 5.0625 6.53125 C 5.109375 6.65625 5.105469 6.777344 5.054688 6.898438 C 4.691406 7.792969 4.46875 8.71875 4.378906 9.679688 C 4.21875 11.644531 4.789062 13.148438 6.078125 14.152344 C 9.265625 16.625 11.988281 15.347656 12.015625 15.335938 C 12.132812 15.273438 12.257812 15.265625 12.382812 15.308594 C 12.511719 15.351562 12.601562 15.433594 12.660156 15.554688 C 12.71875 15.675781 12.726562 15.800781 12.679688 15.929688 C 12.632812 16.054688 12.550781 16.148438 12.429688 16.203125 C 12.359375 16.238281 11.488281 16.648438 10.15625 16.648438 Z M 10.15625 16.648438 " fill-opacity="1" fill-rule="nonzero"/></svg>